<mxfile host="Electron" modified="2023-07-02T18:37:16.785Z" agent="Mozilla/5.0 (Windows NT 10.0; Win64; x64) AppleWebKit/537.36 (KHTML, like Gecko) draw.io/21.5.0 Chrome/112.0.5615.204 Electron/24.5.1 Safari/537.36" etag="yDmr4C3yqhah0_m-q4Hy" version="21.5.0" type="device">
  <diagram name="Страница 1" id="qqXfNB4gu3gRS1dnE2do">
    <mxGraphModel dx="1434" dy="844" grid="1" gridSize="10" guides="1" tooltips="1" connect="1" arrows="1" fold="1" page="1" pageScale="1" pageWidth="827" pageHeight="1169" math="0" shadow="0">
      <root>
        <mxCell id="0" />
        <mxCell id="1" parent="0" />
        <mxCell id="ta9OTCw8AOBSyfI7Z184-1" value="Открытие нового СТО" style="rounded=1;whiteSpace=wrap;html=1;" vertex="1" parent="1">
          <mxGeometry x="294" y="20" width="120" height="60" as="geometry" />
        </mxCell>
        <mxCell id="ta9OTCw8AOBSyfI7Z184-7" value="" style="edgeStyle=orthogonalEdgeStyle;rounded=0;orthogonalLoop=1;jettySize=auto;html=1;" edge="1" parent="1" source="ta9OTCw8AOBSyfI7Z184-2" target="ta9OTCw8AOBSyfI7Z184-6">
          <mxGeometry relative="1" as="geometry" />
        </mxCell>
        <mxCell id="ta9OTCw8AOBSyfI7Z184-12" style="edgeStyle=orthogonalEdgeStyle;rounded=0;orthogonalLoop=1;jettySize=auto;html=1;" edge="1" parent="1" source="ta9OTCw8AOBSyfI7Z184-2" target="ta9OTCw8AOBSyfI7Z184-10">
          <mxGeometry relative="1" as="geometry">
            <Array as="points">
              <mxPoint x="150" y="210" />
              <mxPoint x="329" y="210" />
            </Array>
          </mxGeometry>
        </mxCell>
        <mxCell id="ta9OTCw8AOBSyfI7Z184-13" value="" style="edgeStyle=orthogonalEdgeStyle;rounded=0;orthogonalLoop=1;jettySize=auto;html=1;entryX=0.5;entryY=0;entryDx=0;entryDy=0;" edge="1" parent="1" target="ta9OTCw8AOBSyfI7Z184-11">
          <mxGeometry relative="1" as="geometry">
            <mxPoint x="210" y="210" as="sourcePoint" />
            <mxPoint x="510" y="280" as="targetPoint" />
          </mxGeometry>
        </mxCell>
        <mxCell id="ta9OTCw8AOBSyfI7Z184-2" value="Проектирование и строительство СТО" style="rounded=0;whiteSpace=wrap;html=1;" vertex="1" parent="1">
          <mxGeometry x="90" y="140" width="120" height="60" as="geometry" />
        </mxCell>
        <mxCell id="ta9OTCw8AOBSyfI7Z184-3" value="Провести марткетинг" style="rounded=0;whiteSpace=wrap;html=1;" vertex="1" parent="1">
          <mxGeometry x="269" y="140" width="120" height="60" as="geometry" />
        </mxCell>
        <mxCell id="ta9OTCw8AOBSyfI7Z184-4" value="Поиск поставшиков запчастей" style="rounded=0;whiteSpace=wrap;html=1;" vertex="1" parent="1">
          <mxGeometry x="450" y="140" width="120" height="60" as="geometry" />
        </mxCell>
        <mxCell id="ta9OTCw8AOBSyfI7Z184-5" value="Подбор персонала" style="rounded=0;whiteSpace=wrap;html=1;" vertex="1" parent="1">
          <mxGeometry x="620" y="140" width="120" height="60" as="geometry" />
        </mxCell>
        <mxCell id="ta9OTCw8AOBSyfI7Z184-6" value="Поиск рентабельного местоположения СТО" style="rounded=0;whiteSpace=wrap;html=1;" vertex="1" parent="1">
          <mxGeometry x="90" y="240" width="120" height="60" as="geometry" />
        </mxCell>
        <mxCell id="ta9OTCw8AOBSyfI7Z184-8" value="&lt;font style=&quot;font-size: 30px;&quot;&gt;1.&lt;/font&gt;" style="text;html=1;align=center;verticalAlign=middle;resizable=0;points=[];autosize=1;strokeColor=none;fillColor=none;" vertex="1" parent="1">
          <mxGeometry x="15" y="138" width="50" height="50" as="geometry" />
        </mxCell>
        <mxCell id="ta9OTCw8AOBSyfI7Z184-9" value="&lt;font style=&quot;font-size: 30px;&quot;&gt;2.&lt;/font&gt;" style="text;html=1;align=center;verticalAlign=middle;resizable=0;points=[];autosize=1;strokeColor=none;fillColor=none;" vertex="1" parent="1">
          <mxGeometry x="15" y="238" width="50" height="50" as="geometry" />
        </mxCell>
        <mxCell id="ta9OTCw8AOBSyfI7Z184-10" value="Строительство нового СТО" style="rounded=0;whiteSpace=wrap;html=1;" vertex="1" parent="1">
          <mxGeometry x="269" y="238" width="120" height="60" as="geometry" />
        </mxCell>
        <mxCell id="ta9OTCw8AOBSyfI7Z184-20" value="" style="edgeStyle=orthogonalEdgeStyle;rounded=0;orthogonalLoop=1;jettySize=auto;html=1;entryX=0.567;entryY=-0.033;entryDx=0;entryDy=0;entryPerimeter=0;" edge="1" parent="1" source="ta9OTCw8AOBSyfI7Z184-11" target="ta9OTCw8AOBSyfI7Z184-16">
          <mxGeometry relative="1" as="geometry">
            <Array as="points">
              <mxPoint x="808" y="270" />
            </Array>
          </mxGeometry>
        </mxCell>
        <mxCell id="ta9OTCw8AOBSyfI7Z184-22" value="" style="edgeStyle=orthogonalEdgeStyle;rounded=0;orthogonalLoop=1;jettySize=auto;html=1;entryX=0.333;entryY=-0.067;entryDx=0;entryDy=0;entryPerimeter=0;" edge="1" parent="1">
          <mxGeometry relative="1" as="geometry">
            <mxPoint x="560" y="272.02" as="sourcePoint" />
            <mxPoint x="619.96" y="378" as="targetPoint" />
          </mxGeometry>
        </mxCell>
        <mxCell id="ta9OTCw8AOBSyfI7Z184-23" value="" style="edgeStyle=orthogonalEdgeStyle;rounded=0;orthogonalLoop=1;jettySize=auto;html=1;entryX=0.35;entryY=0.05;entryDx=0;entryDy=0;entryPerimeter=0;" edge="1" parent="1" source="ta9OTCw8AOBSyfI7Z184-11" target="ta9OTCw8AOBSyfI7Z184-18">
          <mxGeometry relative="1" as="geometry" />
        </mxCell>
        <mxCell id="ta9OTCw8AOBSyfI7Z184-24" value="" style="edgeStyle=orthogonalEdgeStyle;rounded=0;orthogonalLoop=1;jettySize=auto;html=1;entryX=0.592;entryY=-0.033;entryDx=0;entryDy=0;entryPerimeter=0;" edge="1" parent="1" source="ta9OTCw8AOBSyfI7Z184-11" target="ta9OTCw8AOBSyfI7Z184-15">
          <mxGeometry relative="1" as="geometry">
            <Array as="points">
              <mxPoint x="500" y="340" />
              <mxPoint x="321" y="340" />
            </Array>
          </mxGeometry>
        </mxCell>
        <mxCell id="ta9OTCw8AOBSyfI7Z184-25" value="" style="edgeStyle=orthogonalEdgeStyle;rounded=0;orthogonalLoop=1;jettySize=auto;html=1;entryX=0.5;entryY=0;entryDx=0;entryDy=0;" edge="1" parent="1" source="ta9OTCw8AOBSyfI7Z184-11" target="ta9OTCw8AOBSyfI7Z184-17">
          <mxGeometry relative="1" as="geometry">
            <Array as="points">
              <mxPoint x="500" y="340" />
              <mxPoint x="140" y="340" />
            </Array>
          </mxGeometry>
        </mxCell>
        <mxCell id="ta9OTCw8AOBSyfI7Z184-11" value="Закупка нового оборудования" style="rounded=0;whiteSpace=wrap;html=1;" vertex="1" parent="1">
          <mxGeometry x="440" y="240" width="120" height="60" as="geometry" />
        </mxCell>
        <mxCell id="ta9OTCw8AOBSyfI7Z184-14" value="Закупка автомоечного оборудования" style="rounded=0;whiteSpace=wrap;html=1;" vertex="1" parent="1">
          <mxGeometry x="580" y="380" width="120" height="60" as="geometry" />
        </mxCell>
        <mxCell id="ta9OTCw8AOBSyfI7Z184-15" value="Закупка диагностического оборудования" style="rounded=0;whiteSpace=wrap;html=1;" vertex="1" parent="1">
          <mxGeometry x="250" y="380" width="120" height="60" as="geometry" />
        </mxCell>
        <mxCell id="ta9OTCw8AOBSyfI7Z184-16" value="Закупка слесарного инструмента и автоподемников" style="rounded=0;whiteSpace=wrap;html=1;" vertex="1" parent="1">
          <mxGeometry x="740" y="380" width="120" height="60" as="geometry" />
        </mxCell>
        <mxCell id="ta9OTCw8AOBSyfI7Z184-17" value="Закупка стенда развал-схождения" style="rounded=0;whiteSpace=wrap;html=1;" vertex="1" parent="1">
          <mxGeometry x="80" y="380" width="120" height="60" as="geometry" />
        </mxCell>
        <mxCell id="ta9OTCw8AOBSyfI7Z184-18" value="Закупка шиномонтажного оборудования" style="rounded=0;whiteSpace=wrap;html=1;" vertex="1" parent="1">
          <mxGeometry x="420" y="380" width="120" height="60" as="geometry" />
        </mxCell>
        <mxCell id="ta9OTCw8AOBSyfI7Z184-19" value="&lt;font style=&quot;font-size: 30px;&quot;&gt;3.&lt;/font&gt;" style="text;html=1;align=center;verticalAlign=middle;resizable=0;points=[];autosize=1;strokeColor=none;fillColor=none;" vertex="1" parent="1">
          <mxGeometry x="15" y="378" width="50" height="50" as="geometry" />
        </mxCell>
      </root>
    </mxGraphModel>
  </diagram>
</mxfile>
